<svg width="1600" height="900" viewBox="0 0 1600 900" fill="none" xmlns="http://www.w3.org/2000/svg">
<g clip-path="url(#clip0)">
<rect width="1600" height="900" fill="#275CA8"/>
<path d="M1400.86 25.8456C1400.86 31.244 1396.81 35.5714 1391.87 35.5714C1386.94 35.5714 1382.89 31.244 1382.89 25.8456C1382.89 20.4472 1386.94 16.1199 1391.87 16.1199C1396.81 16.1199 1400.86 20.4472 1400.86 25.8456Z" fill="#F2F2F7" stroke="#F2F2F7" stroke-width="0.740422"/>
<path d="M1442.02 25.8456H1400.86" stroke="#F2F2F7" stroke-width="3.70211" stroke-linecap="round"/>
<path d="M1087.23 239.072C1087.23 244.47 1083.18 248.798 1078.24 248.798C1073.31 248.798 1069.26 244.47 1069.26 239.072C1069.26 233.673 1073.31 229.346 1078.24 229.346C1083.18 229.346 1087.23 233.673 1087.23 239.072Z" fill="#F2F2F7" stroke="#F2F2F7" stroke-width="0.740422"/>
<path d="M1450.63 174.458H1123.53L1083.86 231.803" stroke="#F2F2F7" stroke-width="3.70211" stroke-linecap="round"/>
<path d="M1123.16 243.11C1123.16 248.509 1119.11 252.836 1114.17 252.836C1109.24 252.836 1105.19 248.509 1105.19 243.11C1105.19 237.712 1109.24 233.384 1114.17 233.384C1119.11 233.384 1123.16 237.712 1123.16 243.11Z" fill="#F2F2F7" stroke="#F2F2F7" stroke-width="0.740422"/>
<path d="M1455 198.653H1148.86L1118.91 236.21" stroke="#F2F2F7" stroke-width="3.70211" stroke-linecap="round"/>
<path d="M1404.6 215.649C1404.6 221.048 1400.55 225.375 1395.62 225.375C1390.68 225.375 1386.63 221.048 1386.63 215.649C1386.63 210.251 1390.68 205.924 1395.62 205.924C1400.55 205.924 1404.6 210.251 1404.6 215.649Z" fill="#F2F2F7" stroke="#F2F2F7" stroke-width="0.740422"/>
<path d="M1445.02 216.861H1404.6" stroke="#F2F2F7" stroke-width="3.70211" stroke-linecap="round"/>
<path d="M1337.98 326.301C1337.98 331.699 1333.94 336.027 1329 336.027C1324.06 336.027 1320.01 331.699 1320.01 326.301C1320.01 320.902 1324.06 316.575 1329 316.575C1333.94 316.575 1337.98 320.902 1337.98 326.301Z" fill="#F2F2F7" stroke="#F2F2F7" stroke-width="0.740422"/>
<path d="M1448.76 326.301H1338.35" stroke="#F2F2F7" stroke-width="3.70211" stroke-linecap="round"/>
<path d="M1026.6 521.758C1026.6 527.157 1022.55 531.484 1017.61 531.484C1012.68 531.484 1008.63 527.157 1008.63 521.758C1008.63 516.36 1012.68 512.032 1017.61 512.032C1022.55 512.032 1026.6 516.36 1026.6 521.758Z" fill="#F2F2F7" stroke="#F2F2F7" stroke-width="0.740422"/>
<path d="M1442.4 522.162L1026.97 522.162" stroke="#F2F2F7" stroke-width="3.70211" stroke-linecap="round"/>
<path d="M1238.43 562.142C1238.43 567.54 1234.38 571.868 1229.45 571.868C1224.51 571.868 1220.46 567.54 1220.46 562.142C1220.46 556.744 1224.51 552.416 1229.45 552.416C1234.38 552.416 1238.43 556.744 1238.43 562.142Z" fill="#F2F2F7" stroke="#F2F2F7" stroke-width="0.740422"/>
<path d="M1445.39 562.142H1238.43" stroke="#F2F2F7" stroke-width="3.70211" stroke-linecap="round"/>
<path d="M1017.62 575.065C1017.62 580.463 1013.57 584.79 1008.63 584.79C1003.69 584.79 999.645 580.463 999.645 575.065C999.645 569.666 1003.69 565.339 1008.63 565.339C1013.57 565.339 1017.62 569.666 1017.62 575.065Z" fill="#F2F2F7" stroke="#F2F2F7" stroke-width="0.740422"/>
<path d="M1443.15 578.699L1017.99 575.469" stroke="#F2F2F7" stroke-width="3.70211" stroke-linecap="round"/>
<path d="M1204.75 671.986C1204.75 677.384 1200.7 681.711 1195.76 681.711C1190.82 681.711 1186.78 677.384 1186.78 671.986C1186.78 666.587 1190.82 662.26 1195.76 662.26C1200.7 662.26 1204.75 666.587 1204.75 671.986Z" fill="#F2F2F7" stroke="#F2F2F7" stroke-width="0.740422"/>
<path d="M1443.9 594.045H1329.75L1288.95 633.217L1235.81 631.804L1202.12 665.12" stroke="#F2F2F7" stroke-width="3.70211" stroke-linecap="round"/>
<path d="M1401.61 635.64C1401.61 641.039 1397.56 645.366 1392.62 645.366C1387.69 645.366 1383.64 641.039 1383.64 635.64C1383.64 630.242 1387.69 625.915 1392.62 625.915C1397.56 625.915 1401.61 630.242 1401.61 635.64Z" fill="#F2F2F7" stroke="#F2F2F7" stroke-width="0.740422"/>
<path d="M1444.64 636.448H1401.6" stroke="#F2F2F7" stroke-width="3.70211" stroke-linecap="round"/>
<path d="M1130.64 623.525C1130.64 628.924 1126.59 633.251 1121.66 633.251C1116.72 633.251 1112.67 628.924 1112.67 623.525C1112.67 618.127 1116.72 613.799 1121.66 613.799C1126.59 613.799 1130.64 618.127 1130.64 623.525Z" fill="#F2F2F7" stroke="#F2F2F7" stroke-width="0.740422"/>
<path d="M1445.77 651.39H1321.51L1290.82 687.332H1177.05L1127.65 631.198" stroke="#F2F2F7" stroke-width="3.70211" stroke-linecap="round"/>
<path d="M1090.97 615.449C1090.97 620.847 1086.92 625.174 1081.99 625.174C1077.05 625.174 1073 620.847 1073 615.449C1073 610.05 1077.05 605.723 1081.99 605.723C1086.92 605.723 1090.97 610.05 1090.97 615.449Z" fill="#F2F2F7" stroke="#F2F2F7" stroke-width="0.740422"/>
<path d="M1445.39 667.947H1333.12L1299.06 707.523H1163.58L1088.35 622.314" stroke="#F2F2F7" stroke-width="3.70211" stroke-linecap="round"/>
<path d="M980.192 771.871C980.192 777.269 976.142 781.597 971.205 781.597C966.268 781.597 962.219 777.269 962.219 771.871C962.219 766.473 966.268 762.145 971.205 762.145C976.142 762.145 980.192 766.473 980.192 771.871Z" fill="#F2F2F7" stroke="#F2F2F7" stroke-width="0.740422"/>
<path d="M1248.91 1031.94L1247.41 979.847L1055.79 771.871H980.187" stroke="#F2F2F7" stroke-width="3.70211" stroke-linecap="round"/>
<path d="M1056.54 822.722C1056.54 828.121 1052.49 832.448 1047.55 832.448C1042.62 832.448 1038.57 828.121 1038.57 822.722C1038.57 817.324 1042.62 812.996 1047.55 812.996C1052.49 812.996 1056.54 817.324 1056.54 822.722Z" fill="#F2F2F7" stroke="#F2F2F7" stroke-width="0.740422"/>
<path d="M1202.12 1032.72V989.911L1054.29 829.587" stroke="#F2F2F7" stroke-width="3.70211" stroke-linecap="round"/>
<path d="M1015.37 933.406C1015.37 938.804 1011.32 943.132 1006.39 943.132C1001.45 943.132 997.4 938.804 997.4 933.406C997.4 928.008 1001.45 923.68 1006.39 923.68C1011.32 923.68 1015.37 928.008 1015.37 933.406Z" fill="#F2F2F7" stroke="#F2F2F7" stroke-width="0.740422"/>
<path d="M1188.65 1031.13V997.616L1067.02 866.369L1012.37 926.137" stroke="#F2F2F7" stroke-width="3.70211" stroke-linecap="round"/>
<path d="M1094.72 956.829C1094.72 962.227 1090.67 966.554 1085.73 966.554C1080.79 966.554 1076.74 962.227 1076.74 956.829C1076.74 951.43 1080.79 947.103 1085.73 947.103C1090.67 947.103 1094.72 951.43 1094.72 956.829Z" fill="#F2F2F7" stroke="#F2F2F7" stroke-width="0.740422"/>
<path d="M1147.86 1027.9L1090.97 964.502" stroke="#F2F2F7" stroke-width="3.70211" stroke-linecap="round"/>
<path d="M937.526 899.484C937.526 904.882 933.477 909.209 928.54 909.209C923.603 909.209 919.553 904.882 919.553 899.484C919.553 894.085 923.603 889.758 928.54 889.758C933.477 889.758 937.526 894.085 937.526 899.484Z" fill="#F2F2F7" stroke="#F2F2F7" stroke-width="0.740422"/>
<path d="M1119.04 1023.87L1061.03 961.271H986.176L934.528 907.157" stroke="#F2F2F7" stroke-width="3.70211" stroke-linecap="round"/>
<path d="M914.322 925.329C914.322 930.728 910.272 935.055 905.336 935.055C900.399 935.055 896.349 930.728 896.349 925.329C896.349 919.931 900.399 915.604 905.336 915.604C910.272 915.604 914.322 919.931 914.322 925.329Z" fill="#F2F2F7" stroke="#F2F2F7" stroke-width="0.740422"/>
<path d="M1102.57 1029.12L1060.28 980.655H954.364L910.949 933.406" stroke="#F2F2F7" stroke-width="3.70211" stroke-linecap="round"/>
<path d="M873.902 991.559C873.902 996.957 869.852 1001.28 864.915 1001.28C859.978 1001.28 855.929 996.957 855.929 991.559C855.929 986.16 859.978 981.833 864.915 981.833C869.852 981.833 873.902 986.16 873.902 991.559Z" fill="#F2F2F7" stroke="#F2F2F7" stroke-width="0.740422"/>
<path d="M1090.97 1029.92L1058.03 991.559H874.272" stroke="#F2F2F7" stroke-width="3.70211" stroke-linecap="round"/>
<path d="M772.103 927.752C772.103 933.151 768.054 937.478 763.117 937.478C758.18 937.478 754.13 933.151 754.13 927.752C754.13 922.354 758.18 918.027 763.117 918.027C768.054 918.027 772.103 922.354 772.103 927.752Z" fill="#F2F2F7" stroke="#F2F2F7" stroke-width="0.740422"/>
<path d="M782.953 1030.73L763.491 1011.35V935.021" stroke="#F2F2F7" stroke-width="3.70211" stroke-linecap="round"/>
<path d="M715.215 843.754C715.215 849.153 711.166 853.48 706.229 853.48C701.292 853.48 697.243 849.153 697.243 843.754C697.243 838.356 701.292 834.028 706.229 834.028C711.166 834.028 715.215 838.356 715.215 843.754Z" fill="#F2F2F7" stroke="#F2F2F7" stroke-width="0.740422"/>
<path d="M706.603 1027.9V853.446" stroke="#F2F2F7" stroke-width="3.70211" stroke-linecap="round"/>
<path d="M620.902 825.178C620.902 830.576 616.852 834.903 611.915 834.903C606.978 834.903 602.929 830.576 602.929 825.178C602.929 819.779 606.978 815.452 611.915 815.452C616.852 815.452 620.902 819.779 620.902 825.178Z" fill="#F2F2F7" stroke="#F2F2F7" stroke-width="0.740422"/>
<path d="M616.781 833.254L662.815 899.888V1038" stroke="#F2F2F7" stroke-width="3.70211" stroke-linecap="round"/>
<path d="M574.493 930.983C574.493 936.381 570.444 940.709 565.507 940.709C560.57 940.709 556.521 936.381 556.521 930.983C556.521 925.585 560.57 921.257 565.507 921.257C570.444 921.257 574.493 925.585 574.493 930.983Z" fill="#F2F2F7" stroke="#F2F2F7" stroke-width="0.740422"/>
<path d="M606.676 1028.31L605.179 973.386L571.87 938.252" stroke="#F2F2F7" stroke-width="3.70211" stroke-linecap="round"/>
<path d="M455.479 834.87C455.479 840.268 451.429 844.595 446.492 844.595C441.556 844.595 437.506 840.268 437.506 834.87C437.506 829.471 441.556 825.144 446.492 825.144C451.429 825.144 455.479 829.471 455.479 834.87Z" fill="#F2F2F7" stroke="#F2F2F7" stroke-width="0.740422"/>
<path d="M589.46 1028.31V988.732L452.481 842.543" stroke="#F2F2F7" stroke-width="3.70211" stroke-linecap="round"/>
<path d="M570.373 1027.1V1004.81L405.698 828.812" stroke="#F2F2F7" stroke-width="3.70211" stroke-linecap="round"/>
<path d="M408.322 821.947C408.322 827.345 404.273 831.673 399.336 831.673C394.399 831.673 390.349 827.345 390.349 821.947C390.349 816.549 394.399 812.221 399.336 812.221C404.273 812.221 408.322 816.549 408.322 821.947Z" fill="#F2F2F7" stroke="#F2F2F7" stroke-width="0.740422"/>
<path d="M407.574 852.639C407.574 858.037 403.524 862.364 398.587 862.364C393.65 862.364 389.601 858.037 389.601 852.639C389.601 847.24 393.65 842.913 398.587 842.913C403.524 842.913 407.574 847.24 407.574 852.639Z" fill="#F2F2F7" stroke="#F2F2F7" stroke-width="0.740422"/>
<path d="M561.391 1027.5L404.95 859.504" stroke="#F2F2F7" stroke-width="3.70211" stroke-linecap="round"/>
<path d="M371.645 927.752C371.645 933.151 367.595 937.478 362.658 937.478C357.721 937.478 353.672 933.151 353.672 927.752C353.672 922.354 357.721 918.027 362.658 918.027C367.595 918.027 371.645 922.354 371.645 927.752Z" fill="#F2F2F7" stroke="#F2F2F7" stroke-width="0.740422"/>
<path d="M431.522 1030.33V1006.5L368.272 936.233" stroke="#F2F2F7" stroke-width="3.70211" stroke-linecap="round"/>
<path d="M423.663 1030.73L283.315 876.869" stroke="#F2F2F7" stroke-width="3.70211" stroke-linecap="round"/>
<path d="M286.313 869.6C286.313 874.998 282.264 879.326 277.327 879.326C272.39 879.326 268.341 874.998 268.341 869.6C268.341 864.201 272.39 859.874 277.327 859.874C282.264 859.874 286.313 864.201 286.313 869.6Z" fill="#F2F2F7" stroke="#F2F2F7" stroke-width="0.740422"/>
<path d="M203.227 882.523C203.227 887.921 199.178 892.248 194.241 892.248C189.304 892.248 185.255 887.921 185.255 882.523C185.255 877.124 189.304 872.797 194.241 872.797C199.178 872.797 203.227 877.124 203.227 882.523Z" fill="#F2F2F7" stroke="#F2F2F7" stroke-width="0.740422"/>
<path d="M58.3845 1030.73L187.504 889.792" stroke="#F2F2F7" stroke-width="3.70211" stroke-linecap="round"/>
<path d="M187.508 575.065C187.508 580.463 183.459 584.79 178.522 584.79C173.585 584.79 169.536 580.463 169.536 575.065C169.536 569.666 173.585 565.339 178.522 565.339C183.459 565.339 187.508 569.666 187.508 575.065Z" fill="#F2F2F7" stroke="#F2F2F7" stroke-width="0.740422"/>
<path d="M0 575.469H169.54" stroke="#F2F2F7" stroke-width="3.70211" stroke-linecap="round"/>
<path d="M42.2954 314.186C42.2954 319.584 38.2461 323.911 33.3091 323.911C28.3722 323.911 24.3228 319.584 24.3228 314.186C24.3228 308.787 28.3722 304.46 33.3091 304.46C38.2461 304.46 42.2954 308.787 42.2954 314.186Z" fill="#F2F2F7" stroke="#F2F2F7" stroke-width="0.740422"/>
<path d="M0 313.782H23.9527" stroke="#F2F2F7" stroke-width="3.70211" stroke-linecap="round"/>
<path d="M508.017 163.958C508.017 169.356 503.968 173.684 499.031 173.684C494.094 173.684 490.045 169.356 490.045 163.958C490.045 158.56 494.094 154.232 499.031 154.232C503.968 154.232 508.017 158.56 508.017 163.958Z" fill="#F2F2F7" stroke="#F2F2F7" stroke-width="0.740422"/>
<path d="M527.849 0V39.1722L499.031 70.6716V153.862" stroke="#F2F2F7" stroke-width="3.70211" stroke-linecap="round"/>
</g>
<defs>
<clipPath id="clip0">
<rect width="1449" height="1041" fill="white"/>
</clipPath>
</defs>
</svg>
